#!OML:ASF F:\VICON\USERDATA\INSTALL\rory3\rory3.ASF
:FULLY-SPECIFIED
:DEGREES
414
root 0.985817 16.8108 14.8117 539.305 -63.5853 -1.64714
lowerback -7.15689 3.23005 5.9488
upperback -18.3473 4.27885 -6.44287
thorax -15.7791 0.525318 -11.0072
lowerneck -0.86742 2.9615 25.5838
upperneck -17.125 4.26709 -3.43183
head -4.64677 0.496317 -5.26742
rclavicle 7.4743e-014 6.36111e-014
rhumerus 64.3012 -15.7616 -29.9398
rradius 35.4961
rwrist 13.7721
rhand -37.588 -254.131
rfingers 7.12502
rthumb 169.358 -44.4201
lclavicle 7.4743e-014 6.36111e-014
lhumerus 74.9639 20.5946 5.52116
lradius 39.1655
lwrist 24.9912
lhand -51.3378 -617.761
lfingers 7.12502
lthumb -23.8726 -73.7023
rfemur -88.6626 -30.7752 -11.3169
rtibia 68.0759
rfoot -3.01203 -26.9796
rtoes -1.45667
lfemur -16.1819 12.4217 0.174225
ltibia 34.7262
lfoot -10.5718 20.647
ltoes -7.36538
415
root 0.945463 16.8287 15.0058 540.589 -64.8745 -2.40779
lowerback -7.2772 3.0199 6.03731
upperback -18.2219 3.93234 -6.42029
thorax -15.6224 0.335556 -10.9921
lowerneck -2.25878 3.20518 23.2206
upperneck -16.7272 4.31352 -1.99961
head -4.35073 0.604658 -4.41912
rclavicle -1.88448e-013 -4.6118e-014
rhumerus 64.8819 -16.2653 -30.261
rradius 35.2167
rwrist 14.557
rhand -39.1043 -254.542
rfingers 7.12502
rthumb 167.896 -44.912
lclavicle -1.88448e-013 -4.6118e-014
lhumerus 74.9502 20.7609 5.48187
lradius 38.9749
lwrist 25.3712
lhand -49.6748 -620.429
lfingers 7.12502
lthumb -22.2769 -70.8351
rfemur -87.3121 -29.9044 -9.5168
rtibia 68.9633
rfoot -3.54027 -25.4874
rtoes -3.88603
lfemur -18.6191 11.3233 1.57813
ltibia 35.5802
lfoot -11.1003 21.1695
ltoes -8.16998
416
root 0.916738 16.8697 15.1866 541.827 -66.2235 -3.19806
lowerback -7.30162 2.77867 6.11174
upperback -18.089 3.54651 -6.36686
thorax -15.5289 0.125057 -10.94
lowerneck -3.37821 3.40178 21.8606
upperneck -16.4614 4.34766 -1.21362
head -4.11634 0.674547 -3.93901
rclavicle 1.59028e-015 7.71285e-014
rhumerus 65.7212 -16.7884 -30.829
rradius 34.6963
rwrist 15.4963
rhand -39.056 -255.041
rfingers 7.12502
rthumb 167.942 -45.4088
lclavicle 1.59028e-015 7.71285e-014
lhumerus 74.982 20.8408 5.16111
lradius 38.6357
lwrist 25.5857
lhand -48.3157 -624.261
lfingers 7.12502
lthumb -20.9718 -66.8527
rfemur -85.8304 -28.784 -8.14291
rtibia 69.8391
rfoot -4.62281 -24.5384
rtoes -3.85156
lfemur -21.1609 10.6328 3.20973
ltibia 36.7161
lfoot -11.6227 21.5316
ltoes -7.25199
417
root 0.887448 16.9086 15.3772 542.423 -67.7304 -3.55832
lowerback -7.01529 2.70512 6.5467
upperback -17.8679 2.88117 -6.26881
thorax -15.5648 -0.104034 -11.1005
lowerneck -4.65352 3.69584 19.7467
upperneck -16.3284 4.53106 -0.555217
head -3.88223 0.870464 -3.39038
rclavicle 1.83677e-013 7.15625e-014
rhumerus 66.4561 -17.2583 -30.8975
rradius 34.1058
rwrist 15.8062
rhand -36.6239 -257.304
rfingers 7.12502
rthumb 170.288 -47.5476
lclavicle 1.83677e-013 7.15625e-014
lhumerus 74.7472 20.9516 4.55082
lradius 38.3555
lwrist 25.2891
lhand -48.3698 -626.206
lfingers 7.12502
lthumb -21.0237 -64.9139
rfemur -84.1758 -28.0268 -6.26057
rtibia 70.5505
rfoot -5.47775 -23.3658
rtoes -5.03978
lfemur -23.7185 10.3135 5.0858
ltibia 38.0022
lfoot -12.5956 20.9461
ltoes -6.20515
418
root 0.85677 16.9443 15.548 545.29 -69.2392 -6.18093
lowerback -7.04656 2.25872 5.92146
upperback -17.6802 2.34564 -6.28032
thorax -15.4358 -0.232501 -10.7203
lowerneck -5.80776 3.87408 18.0241
upperneck -16.208 4.61712 0.0529382
head -3.68419 0.994574 -2.91539
rclavicle 7.23576e-014 2.70347e-014
rhumerus 67.2394 -17.7688 -30.4705
rradius 33.3808
rwrist 15.811
rhand -35.9083 -257.438
rfingers 7.12502
rthumb 170.979 -47.6508
lclavicle 7.23576e-014 2.70347e-014
lhumerus 74.6299 21.1933 4.22305
lradius 37.7547
lwrist 25.0718
lhand -48.8439 -625.776
lfingers 7.12502
lthumb -21.4791 -65.3951
rfemur -82.8705 -27.704 -4.81111
rtibia 71.1333
rfoot -5.84785 -21.9343
rtoes -8.53343
lfemur -26.5985 10.2369 6.03603
ltibia 39.2503
lfoot -13.6341 20.5143
ltoes -6.1594
419
root 0.822146 16.9857 15.7298 547.871 -70.8562 -8.10664
lowerback -7.22173 1.87559 5.97121
upperback -17.587 1.91285 -6.23007
thorax -15.3202 -0.399105 -10.6677
lowerneck -7.13242 3.95024 15.7031
upperneck -16.0737 4.63558 0.949371
head -3.47811 1.11202 -2.25461
rclavicle 1.59823e-013 3.4191e-014
rhumerus 68.1709 -18.3887 -30.014
rradius 32.6227
rwrist 16.5731
rhand -35.804 -258.051
rfingers 7.12502
rthumb 171.079 -48.2594
lclavicle 1.59823e-013 3.4191e-014
lhumerus 74.4022 21.5327 3.98871
lradius 37.1465
lwrist 25.3222
lhand -48.8559 -624.969
lfingers 7.12502
lthumb -21.4907 -66.2034
rfemur -81.96 -27.6301 -2.81473
rtibia 71.5575
rfoot -5.85982 -20.8036
rtoes -11.6595
lfemur -30.0436 10.6299 7.26852
ltibia 40.3257
lfoot -14.6691 20.3472
ltoes -5.73593
420
root 0.78742 17.0287 15.9016 550.05 -72.2832 -9.57916
lowerback -7.42944 1.5809 6.25237
upperback -17.5281 1.59374 -6.09839
thorax -15.2046 -0.538473 -10.6581
lowerneck -8.08469 3.65358 12.8375
upperneck -16.1597 4.36808 2.14443
head -3.77438 1.08308 -1.48877
rclavicle 1.89243e-013 8.34896e-014
rhumerus 69.1184 -19.0054 -29.5268
rradius 31.9354
rwrist 17.6251
rhand -34.9585 -259.474
rfingers 7.12502
rthumb 171.895 -49.6495
lclavicle 1.89243e-013 8.34896e-014
lhumerus 73.8925 21.803 3.32011
lradius 36.8368
lwrist 25.77
lhand -49.3905 -624.293
lfingers 7.12502
lthumb -22.004 -66.9388
rfemur -81.1732 -27.268 -0.62868
rtibia 71.8475
rfoot -5.5317 -20.3871
rtoes -13.1338
lfemur -33.3331 11.6934 8.73905
ltibia 41.021
lfoot -15.634 20.4138
ltoes -4.47611
421
root 0.755511 17.072 16.0647 552.11 -73.3448 -11.1556
lowerback -7.45263 1.40309 6.40521
upperback -17.4335 1.41273 -5.8925
thorax -15.1137 -0.597823 -10.4906
lowerneck -8.9118 3.42545 10.6667
upperneck -16.3827 4.15766 2.91051
head -3.74879 1.06793 -0.843316
rclavicle -6.59965e-014 -2.3059e-014
rhumerus 70.1988 -19.5661 -28.9869
rradius 30.9995
rwrist 17.9372
rhand -34.5528 -259.742
rfingers 7.12502
rthumb 172.287 -49.903
lclavicle -6.59965e-014 -2.3059e-014
lhumerus 73.2625 22.0597 2.4122
lradius 36.6354
lwrist 26.6214
lhand -50.6265 -623.269
lfingers 7.12502
lthumb -23.1903 -68.1066
rfemur -80.1363 -26.5443 1.45154
rtibia 71.8444
rfoot -5.7364 -20.16
rtoes -14.1619
lfemur -36.0716 13.3255 10.2094
ltibia 41.3091
lfoot -16.8686 20.2451
ltoes -4.43322
422
root 0.718819 17.1058 16.2296 554.389 -74.3437 -13.1571
lowerback -7.21326 1.26384 6.5681
upperback -17.2811 1.28619 -5.66945
thorax -15.095 -0.640972 -10.3165
lowerneck -9.97811 3.235 8.28666
upperneck -16.4247 4.02065 3.74736
head -3.62097 1.11726 -0.145186
rclavicle 1.65389e-013 1.19271e-014
rhumerus 71.207 -20.1444 -28.4616
rradius 30.1974
rwrist 17.7121
rhand -35.2879 -259.586
rfingers 7.12502
rthumb 171.577 -49.774
lclavicle 1.65389e-013 1.19271e-014
lhumerus 72.6995 22.3884 1.75377
lradius 36.267
lwrist 27.8124
lhand -51.3294 -621.599
lfingers 7.12502
lthumb -23.8645 -69.8635
rfemur -78.7521 -25.8343 3.4056
rtibia 71.4985
rfoot -6.38749 -19.8608
rtoes -16.1451
lfemur -38.4153 14.3129 11.7436
ltibia 41.0735
lfoot -17.9656 20.6757
ltoes -3.77103
423
root 0.679853 17.1305 16.4006 557.556 -75.5228 -16.2707
lowerback -6.78852 1.02679 6.77993
upperback -17.0595 1.04881 -5.54433
thorax -15.1372 -0.755108 -10.2888
lowerneck -11.1077 3.03023 5.62507
upperneck -16.4601 3.94939 4.64142
head -3.49663 1.22184 0.611145
rclavicle -1.74931e-014 -6.36111e-015
rhumerus 72.3014 -20.8049 -28.4368
rradius 29.674
rwrist 18.2451
rhand -36.4325 -259.748
rfingers 7.12502
rthumb 170.473 -49.9835
lclavicle -1.74931e-014 -6.36111e-015
lhumerus 72.0516 22.7456 1.08773
lradius 35.8836
lwrist 29.1451
lhand -51.2517 -620.29
lfingers 7.12502
lthumb -23.79 -71.1627
rfemur -77.0122 -25.5853 5.08359
rtibia 70.8533
rfoot -6.96961 -19.4681
rtoes -17.7906
lfemur -40.6392 15.1747 13.033
ltibia 40.3239
lfoot -16.676 22.6077
ltoes -6.50607
424
root 0.636554 17.1449 16.5705 563.382 -76.543 -22.4357
lowerback -6.04244 0.65779 6.38762
upperback -16.7629 0.626834 -5.59155
thorax -15.3111 -0.902878 -10.1081
lowerneck -12.2174 2.9263 3.50145
upperneck -16.3664 3.99315 5.29227
head -3.33046 1.3695 1.19823
rclavicle -5.36719e-014 -5.725e-014
rhumerus 73.663 -21.5583 -29.0017
rradius 29.1416
rwrist 19.8658
rhand -32.473 -264.002
rfingers 7.12502
rthumb 174.295 -54.0993
lclavicle -5.36719e-014 -5.725e-014
lhumerus 71.1348 23.1336 0.04719
lradius 35.6816
lwrist 30.6707
lhand -51.0068 -620.586
lfingers 7.12502
lthumb -23.5551 -70.8368
rfemur -74.8157 -25.5475 5.82192
rtibia 69.9322
rfoot -7.50906 -18.9053
rtoes -17.9518
lfemur -42.4728 15.6742 13.7894
ltibia 39.2425
lfoot -16.5732 23.9716
ltoes -9.77443
425
root 0.597316 17.1577 16.7098 574.47 -76.4295 -33.8933
lowerback -5.49652 0.263677 4.05853
upperback -16.5372 0.0484398 -5.84944
thorax -15.3997 -0.88411 -9.0212
lowerneck -13.2539 2.88209 1.7575
upperneck -16.1359 4.11987 5.9521
head -3.13551 1.54099 1.73052
rclavicle 1.02772e-013 2.3059e-014
rhumerus 74.8323 -22.2726 -29.3984
rradius 28.6379
rwrist 21.1181
rhand -31.758 -264.545
rfingers 7.12502
rthumb 174.985 -54.6239
lclavicle 1.02772e-013 2.3059e-014
lhumerus 70.775 23.3632 -0.691516
lradius 35.0307
lwrist 31.632
lhand -50.932 -622.099
lfingers 7.12502
lthumb -23.4834 -69.3148
rfemur -72.9613 -25.1683 5.0969
rtibia 68.9225
rfoot -7.20232 -18.6407
rtoes -18.7414
lfemur -43.9003 15.7535 13.4833
ltibia 37.8629
lfoot -16.2984 25.4658
ltoes -10.5866
426
root 0.547481 17.171 16.8874 577.398 -76.9783 -37.5138
lowerback -4.07996 0.110461 4.4975
upperback -16.2127 -0.0792342 -5.69119
thorax -15.9197 -1.01478 -9.10455
lowerneck -14.1693 2.75229 -0.340776
upperneck -16.0095 4.25029 6.87
head -3.02534 1.72575 2.42708
rclavicle 1.83876e-014 8.74653e-015
rhumerus 75.9438 -22.8575 -29.5829
rradius 27.8914
rwrist 21.6306
rhand -33.0499 -263.543
rfingers 7.12502
rthumb 173.738 -53.6558
lclavicle 1.83876e-014 8.74653e-015
lhumerus 69.7065 23.5544 -2.01502
lradius 34.9176
lwrist 32.9514
lhand -50.9119 -623.465
lfingers 7.12502
lthumb -23.4641 -67.9455
rfemur -70.4878 -24.5633 6.56285
rtibia 67.6255
rfoot -6.55782 -18.8071
rtoes -21.2001
lfemur -44.7511 16.0272 15.701
ltibia 36.5041
lfoot -16.0083 26.2762
ltoes -11.5528
